<svg width="19" height="19" viewBox="0 0 19 19" fill="none" xmlns="http://www.w3.org/2000/svg">
<path d="M9.97419 4.70055C7.41014 4.70055 5.36691 6.78384 5.36691 9.30784C5.36691 11.8719 7.41014 13.9151 9.97419 13.9151C12.4982 13.9151 14.5815 11.8719 14.5815 9.30784C14.5815 6.78384 12.4982 4.70055 9.97419 4.70055ZM9.97419 12.3126C8.33159 12.3126 6.96944 10.9905 6.96944 9.30784C6.96944 7.66524 8.29153 6.34315 9.97419 6.34315C11.6168 6.34315 12.9389 7.66524 12.9389 9.30784C12.9389 10.9905 11.6168 12.3126 9.97419 12.3126ZM15.8234 4.5403C15.8234 3.93935 15.3427 3.45858 14.7417 3.45858C14.1408 3.45858 13.66 3.93935 13.66 4.5403C13.66 5.14125 14.1408 5.62201 14.7417 5.62201C15.3427 5.62201 15.8234 5.14125 15.8234 4.5403ZM18.8683 5.62201C18.7881 4.17973 18.4676 2.8977 17.426 1.85605C16.3843 0.814403 15.1023 0.493896 13.66 0.413769C12.1777 0.333643 7.73064 0.333643 6.2483 0.413769C4.80602 0.493896 3.56405 0.814403 2.48234 1.85605C1.4407 2.8977 1.12019 4.17973 1.04006 5.62201C0.959937 7.10435 0.959937 11.5514 1.04006 13.0337C1.12019 14.476 1.4407 15.718 2.48234 16.7997C3.56405 17.8413 4.80602 18.1618 6.2483 18.242C7.73064 18.3221 12.1777 18.3221 13.66 18.242C15.1023 18.1618 16.3843 17.8413 17.426 16.7997C18.4676 15.718 18.7881 14.476 18.8683 13.0337C18.9484 11.5514 18.9484 7.10435 18.8683 5.62201ZM16.9452 14.5962C16.6648 15.3975 16.0238 15.9984 15.2626 16.3189C14.0607 16.7997 11.2562 16.6795 9.97419 16.6795C8.6521 16.6795 5.84767 16.7997 4.68583 16.3189C3.88456 15.9984 3.28361 15.3975 2.9631 14.5962C2.48234 13.4344 2.60253 10.6299 2.60253 9.30784C2.60253 8.02581 2.48234 5.22137 2.9631 4.01947C3.28361 3.25827 3.88456 2.65732 4.68583 2.33681C5.84767 1.85605 8.6521 1.97624 9.97419 1.97624C11.2562 1.97624 14.0607 1.85605 15.2626 2.33681C16.0238 2.61725 16.6247 3.25827 16.9452 4.01947C17.426 5.22137 17.3058 8.02581 17.3058 9.30784C17.3058 10.6299 17.426 13.4344 16.9452 14.5962Z" fill="#00B9E4"/>
</svg>
