<svg width="11" height="19" viewBox="0 0 11 19" fill="none" xmlns="http://www.w3.org/2000/svg">
<path d="M5.60187 11.8606L4.01512 12.2857C2.38401 12.7228 1.56845 12.9413 1.08368 12.4983C0.598901 12.0553 0.743229 11.2234 1.03188 9.55965L2.3643 1.87967C2.54684 0.827522 2.63811 0.301451 2.87877 0.290612C3.11943 0.279773 3.25762 0.79551 3.534 1.82698L4.90864 6.95721C4.98178 7.23018 5.01835 7.36666 5.12588 7.42874C5.2334 7.49082 5.36988 7.45425 5.64285 7.38111L7.2296 6.95594C8.86071 6.51888 9.67627 6.30036 10.161 6.74335C10.6458 7.18634 10.5015 8.01823 10.2128 9.68203L8.88042 17.362C8.69788 18.4142 8.60661 18.9402 8.36595 18.9511C8.12529 18.9619 7.9871 18.4462 7.71072 17.4147L6.33608 12.2845C6.26294 12.0115 6.22636 11.875 6.11884 11.8129C6.01132 11.7509 5.87484 11.7874 5.60187 11.8606Z" fill="#00B9E4"/>
</svg>
