<svg width="91" height="57" viewBox="0 0 91 57" fill="none" xmlns="http://www.w3.org/2000/svg">
<path d="M86.5104 0.229248H60.9491C58.779 0.229248 57.0178 1.99047 57.0178 4.16056V20.0588L40.1367 36.9398H57.0178V52.838C57.0178 55.0081 58.779 56.7693 60.9491 56.7693H86.5104C88.6805 56.7693 90.4417 55.0081 90.4417 52.838V4.16056C90.4417 1.99047 88.6805 0.229248 86.5104 0.229248Z" fill="white"/>
<path d="M3.93131 56.7696H29.4927C31.6627 56.7696 33.424 55.0083 33.424 52.8382V36.94L50.305 20.059H33.424V4.1608C33.424 1.99072 31.6627 0.229492 29.4927 0.229492H3.93131C1.76123 0.229492 0 1.99072 0 4.1608V52.8382C0 55.0083 1.76123 56.7696 3.93131 56.7696Z" fill="white"/>
<path d="M73.9853 18.4551C75.7614 18.4551 77.2011 17.0153 77.2011 15.2392C77.2011 13.4632 75.7614 12.0234 73.9853 12.0234C72.2093 12.0234 70.7695 13.4632 70.7695 15.2392C70.7695 17.0153 72.2093 18.4551 73.9853 18.4551Z" fill="#00B9E4"/>
<path d="M73.9853 31.9238C75.7614 31.9238 77.2011 30.484 77.2011 28.708C77.2011 26.932 75.7614 25.4922 73.9853 25.4922C72.2093 25.4922 70.7695 26.932 70.7695 28.708C70.7695 30.484 72.2093 31.9238 73.9853 31.9238Z" fill="#00B9E4"/>
<path d="M73.9853 45.3928C75.7614 45.3928 77.2011 43.953 77.2011 42.177C77.2011 40.4009 75.7614 38.9612 73.9853 38.9612C72.2093 38.9612 70.7695 40.4009 70.7695 42.177C70.7695 43.953 72.2093 45.3928 73.9853 45.3928Z" fill="#00B9E4"/>
</svg>
